<svg width="74" height="12" viewBox="0 0 74 12" fill="none" xmlns="http://www.w3.org/2000/svg">
<path d="M7.832 12H3.8C2.52 12 1.61867 11.7813 1.096 11.344C0.584 10.896 0.328 10.112 0.328 8.992V0.608H7.832V2.592H2.552V5.264H6.248L6.088 7.248H2.552V8.832C2.552 9.28 2.65333 9.58933 2.856 9.76C3.05867 9.93067 3.42667 10.016 3.96 10.016H7.832V12ZM14.5595 8.4H9.6315V6.464H14.5595V8.4ZM29.596 0.608L26.54 12H24.684L22.588 5.088L20.492 12H18.636L15.596 0.608H17.916L19.676 7.792L21.42 1.856C21.612 0.970667 22.0173 0.528 22.636 0.528C22.9453 0.528 23.18 0.645333 23.34 0.879999C23.5 1.104 23.644 1.42933 23.772 1.856L25.5 7.792L27.276 0.608H29.596ZM39.6555 12H37.3355L36.6955 10.032H32.8715L32.2475 12H29.9275L33.5755 1.568C33.7355 1.20533 33.9115 0.954666 34.1035 0.815999C34.3062 0.677333 34.5515 0.608 34.8395 0.608C35.1275 0.608 35.3568 0.672 35.5275 0.799999C35.7088 0.927999 35.8688 1.184 36.0075 1.568L39.6555 12ZM36.1835 8.16L34.8395 3.648L33.4315 8.16H36.1835ZM43.4426 12H41.2186V0.608H43.4426V12ZM53.5016 2.592H50.4456V12H48.2216V2.592H45.1816V0.608H53.5016V2.592ZM62.7383 12H58.7063C57.4263 12 56.5249 11.7813 56.0023 11.344C55.4903 10.896 55.2343 10.112 55.2343 8.992V0.608H62.7383V2.592H57.4583V5.264H61.1543L60.9943 7.248H57.4583V8.832C57.4583 9.28 57.5596 9.58933 57.7623 9.76C57.9649 9.93067 58.3329 10.016 58.8663 10.016H62.7383V12ZM73.5458 12H70.9698L68.7458 7.776H67.1458V12H64.9218V3.056C64.9218 2.20267 65.1191 1.584 65.5138 1.2C65.9084 0.805333 66.5698 0.608 67.4978 0.608H69.3858C70.5164 0.608 71.4124 0.954666 72.0738 1.648C72.7458 2.33067 73.0818 3.2 73.0818 4.256C73.0818 5.024 72.8791 5.69067 72.4738 6.256C72.0791 6.81067 71.5884 7.19467 71.0018 7.408L73.5458 12ZM69.2418 5.92C69.7111 5.92 70.0951 5.76 70.3938 5.44C70.7031 5.10933 70.8578 4.704 70.8578 4.224C70.8578 3.73333 70.7084 3.33867 70.4098 3.04C70.1218 2.74133 69.7324 2.592 69.2418 2.592H68.1378C67.4764 2.592 67.1458 2.928 67.1458 3.6V5.92H69.2418Z" fill="url(#paint0_linear_1209_2855)"/>
<defs>
<linearGradient id="paint0_linear_1209_2855" x1="37" y1="-4" x2="37" y2="18" gradientUnits="userSpaceOnUse">
<stop stop-color="#EC3F59"/>
</linearGradient>
</defs>
</svg>
