<?xml version="1.0" encoding="UTF-8"?><svg id="Warstwa_1" xmlns="http://www.w3.org/2000/svg" viewBox="0 0 1024 1024"><defs><style>.cls-1{fill:#9ab420;}</style></defs><g><path class="cls-1" d="M526.55,130.82c5.84,1.67,11.93,1.48,17.88,2.28,50.65,6.79,96.14,25.96,136.13,57.61,54.24,42.93,89.32,98.34,102.19,166.33,16.86,89.12-3.86,169.47-62.35,239.07-40.28,47.93-91.77,78.36-152.97,91.75-53.09,11.62-105.29,7.28-156.36-10.88-8.16-2.9-15.62-2.92-23.67,.38-29.26,11.97-58.68,23.57-88.03,35.33-4.25,1.7-8.53,3.15-13.22,3.07-7.95-.13-13.1-4.54-14.76-12.41-1.5-7.15,.27-14.07,1.23-21,4.08-29.43,8.45-58.82,12.65-88.24,1.01-7.04-1.9-12.9-5.86-18.48-15.8-22.22-28.17-46.21-37.03-72-11.49-33.47-16.48-67.93-14.76-103.25,5.62-115.31,80.2-219.16,193.69-255.76,21.13-6.81,42.75-11.13,64.88-12.97,.78-.06,1.71,.19,2.11-.84h38.22Zm-223.83,548.2c1.98,.45,3.17-.45,4.4-.94,23.95-9.65,48.01-19.05,71.77-29.14,13.26-5.64,25.97-5.76,39.4-.76,42.43,15.78,86.1,20.95,130.91,13.43,44.18-7.41,84.13-24.96,117.91-54.35,77.99-67.86,108.26-153.06,84.75-254.13-30.22-129.98-158.43-213.75-291.04-188.3-58.53,11.23-107.16,39.82-145.59,85.27-34.14,40.37-52.74,87.37-58.09,139.86-3.45,33.79-.1,66.81,10.3,99.1,8.6,26.69,21.77,51.05,38.44,73.53,7.18,9.69,10.34,20.43,8.67,32.38-2.8,20.12-5.83,40.21-8.7,60.32-1.13,7.9-2.08,15.82-3.12,23.74Z"/><path class="cls-1" d="M640.35,283.68c7.99,.31,14.23,3.23,19.56,8.26,8.97,8.47,13.16,19.22,14.96,31.15,2.02,13.39-.04,26.16-5.87,38.31-3.37,7.02-8.46,12.76-15.17,16.66-5.33,3.1-7.1,7.67-6.68,13.2,1.27,16.55,2.76,33.08,4.28,49.61,1.78,19.42,3.64,38.83,5.56,58.24,.72,7.29,2.07,14.53,2.49,21.82,.65,11.08-4.36,16.56-15.41,18.09-3.37,.47-6.66,.23-9.9-.42-8.17-1.65-13.34-8.51-12.53-17.03,1.51-15.83,3.28-31.64,4.95-47.45,2.11-19.94,4.25-39.88,6.34-59.82,.75-7.15,1.76-14.27,1.63-21.5-.12-6.5-2.31-11.48-7.88-15.47-11.51-8.25-17.3-20.21-19.84-33.84-2.78-14.94-.96-29.25,7.06-42.36,5.21-8.52,12.24-14.99,22.52-16.92,1.49-.28,3.01-.4,3.93-.52Z"/><path class="cls-1" d="M367.97,352.67c2.63-6.88,2.65-13.36,2.72-19.8,.16-15.08,.19-30.17,.36-45.25,.02-1.52-.91-3.74,2.22-3.86,3.05-.11,2.77,1.79,2.95,3.76,1.72,18.38-.05,36.81,.77,55.2,.13,2.9,.51,5.78,.74,8.68,.09,1.08,.37,1.85,1.68,1.85,1.16,0,1.86-.42,1.98-1.6,.23-2.2,.62-4.4,.63-6.6,.12-16.61,.21-33.22,.2-49.83,0-4.03,1.12-7.5,3.76-10.53,4.34,3.55,4.41,8.5,4.81,13.26,1.58,18.75,3.06,37.5,4.61,56.25,.61,7.36-1.84,13.1-7.97,17.54-12.57,9.11-14.31,22.17-12.73,36.36,2.75,24.73,5.42,49.48,8.15,74.21,1.23,11.13,2.33,22.28,3.83,33.38,2.21,16.35-2.93,22.36-19.47,22.24-.69,0-1.39,0-2.08-.03-12.21-.55-17.39-6.23-16.16-18.4,2.48-24.49,5.23-48.95,7.84-73.42,1.72-16.09,3.55-32.16,5.05-48.27,.74-7.96-1.21-15.63-7.85-20.44-12.42-9.01-15.1-20.83-12.71-35.12,2.57-15.43,2.72-31.13,4.01-46.7,.35-4.25,1.64-7.75,4.67-11.08,2.28,2.89,3.78,5.83,3.77,9.61-.06,16.06,0,32.12,.07,48.17,.01,2.9,.36,5.8,.53,8.69,.06,1.06,.33,1.91,1.55,2.08,1.34,.19,1.55-.9,1.88-1.76,1.21-3.14,1.54-6.43,1.54-9.77,0-17.58,.03-35.16,.05-52.74,0-.97,.03-1.94,.02-2.91,0-1.57,1.29-1.59,2.3-1.87,1.2-.33,1.7,.32,2.03,1.43,.87,2.92,1.64,5.8,1.63,8.92-.06,16.06,0,32.12,0,48.18,0,3.32,.22,6.59,2.61,10.16Z"/><path class="cls-1" d="M508.27,506.75c-55.79-.51-95.38-42.19-94.79-99.8,.51-49.85,44.14-91.32,95.49-90.75,52.24,.58,94.42,43.91,93.81,96.36-.61,52.31-43.1,94.65-94.5,94.18Zm-.38-177.81c-45.35-.02-82.44,37.19-82.53,82.78-.08,45.1,37.22,82.38,82.43,82.39,45.56,0,82.73-37.06,82.71-82.49-.03-45.49-37.16-82.67-82.61-82.69Z"/><path class="cls-1" d="M565.08,447.25c10.29-29.97,7.06-56.46-15.83-78.71-22.74-22.11-49.19-24.63-78.04-13.96,25.67-20,66.35-14.56,88.51,11.17,22.89,26.57,20.61,64.27,5.35,81.5Z"/><polygon class="cls-1" points="565.22 447.5 565.3 447.79 565.08 447.77 565.22 447.5"/></g><g><path class="cls-1" d="M255.01,777.41h-47.96v26.95h43.18v11.26h-43.18v36.91h47.96v11.19h-59.21v-97.55h59.21v11.26Z"/><path class="cls-1" d="M313.95,809.2v11.26h-46.05v-11.26h46.05Z"/><path class="cls-1" d="M461.71,766.15l-43.8,103.69-25.17-59.49-26.2,59.21-43.73-103.42h12.14l31.79,75.18,19.99-45.16-12.69-30.02h12.21l31.65,74.9,31.65-74.9h12.14Z"/><path class="cls-1" d="M452.85,863.71l50-103.62,50,103.62h-12.42l-13.03-26.88h-49.12l-12.96,26.88h-12.48Zm69.17-38.13l-19.17-39.63-19.17,39.63h38.34Z"/><path class="cls-1" d="M575.02,766.15v97.55h-11.26v-97.55h11.26Z"/><path class="cls-1" d="M629.8,777.41v86.3h-11.26v-86.3h-30.56v-11.26h72.45v11.26h-30.63Z"/><path class="cls-1" d="M730.56,777.41h-47.96v26.95h43.18v11.26h-43.18v36.91h47.96v11.19h-59.21v-97.55h59.21v11.26Z"/><path class="cls-1" d="M744.82,863.71v-97.55h44.55c9.78,0,17.85,2.8,24.22,8.39,6.46,5.69,9.69,13.03,9.69,22.03s-3.3,17.42-9.89,24.01c-4.68,4.68-10.21,7.73-16.58,9.14l29.88,33.97h-15.01l-29.2-33.22h-26.4v33.22h-11.26Zm11.26-86.3v41.89h33.29c6.28,0,11.62-2.23,16.03-6.68,4.46-4.41,6.69-9.76,6.69-16.03h-.07c0-5.64-1.96-10.17-5.87-13.58-4.23-3.73-9.82-5.59-16.78-5.59h-33.29Z"/></g></svg>