<?xml version="1.0" encoding="UTF-8"?>
<svg id="Layer_2" data-name="Layer 2" xmlns="http://www.w3.org/2000/svg" viewBox="0 0 123.66 159.32">
  <defs>
    <style>
      .cls-1 {
        fill: none;
        stroke: #232323;
        stroke-linecap: round;
        stroke-linejoin: round;
        stroke-width: 6px;
      }
    </style>
  </defs>
  <g id="ikony">
    <g id="alkohol">
      <path class="cls-1" d="m90.26,67.22v71.78c0,9.53-7.8,17.33-17.33,17.33H27.95c-9.53,0-17.33-7.8-17.33-17.33v-71.78"/>
      <path class="cls-1" d="m95.2,50.04c1.51-6.82-1.41-16.7-12.23-16.46-.7.02-1.38.07-2.05.19.11-.99.17-1.99.17-3.01,0-15.33-12.43-27.76-27.76-27.76-14.42,0-26.27,11.01-27.62,25.08-2.1-1.04-4.46-1.63-6.96-1.63-8.7,0-15.76,7.06-15.76,15.76,0,0,.01,13.72,15.76,13.72,19.29,0,22.11,1.65,21.64,15.05-.47,13.41,12.61,15.71,17.41,6.12,2.59-5.17-.94-14.82,3.29-16.94"/>
      <path class="cls-1" d="m100.9,125.47h10.33c5.2,0,9.42-4.22,9.42-9.42v-22.49c0-5.2-4.22-9.42-9.42-9.42h-10.33"/>
      <line class="cls-1" x1="71.11" y1="86.11" x2="71.11" y2="137.48"/>
      <line class="cls-1" x1="53.48" y1="93.71" x2="53.48" y2="137.48"/>
      <path class="cls-1" d="m54.72,15.39s10.72,1.28,13.53,10.72"/>
    </g>
  </g>
</svg>