<?xml version="1.0" encoding="UTF-8"?>
<svg id="Layer_2" data-name="Layer 2" xmlns="http://www.w3.org/2000/svg" viewBox="0 0 158.89 158.89">
  <defs>
    <style>
      .cls-1 {
        stroke-width: 6px;
      }

      .cls-1, .cls-2 {
        fill: none;
        stroke: #232323;
        stroke-linecap: round;
        stroke-linejoin: round;
      }

      .cls-2 {
        stroke-width: 4px;
      }
    </style>
  </defs>
  <g id="ikony">
    <g id="bez_glutenu" data-name="bez glutenu">
      <line class="cls-1" x1="114.28" y1="114.49" x2="131.36" y2="131.57"/>
      <line class="cls-1" x1="27.62" y1="27.83" x2="43.9" y2="44.1"/>
      <line class="cls-1" x1="44.64" y1="114.55" x2="27.62" y2="131.57"/>
      <line class="cls-1" x1="131.36" y1="27.83" x2="115.02" y2="44.17"/>
      <circle class="cls-1" cx="79.45" cy="79.45" r="76.45"/>
      <g>
        <g>
          <g>
            <path class="cls-2" d="m55.24,97.72h6.44c7.96,0,14.43,6.46,14.43,14.43v1.95h-6.44c-7.96,0-14.43-6.46-14.43-14.43v-1.95h0Z"/>
            <path class="cls-2" d="m97.22,97.72h6.44v1.95c0,7.96-6.46,14.43-14.43,14.43h-6.44v-1.95c0-7.96,6.46-14.43,14.43-14.43Z" transform="translate(186.45 211.81) rotate(-180)"/>
          </g>
          <g>
            <path class="cls-2" d="m55.24,74.07h6.44c7.96,0,14.43,6.46,14.43,14.43v1.95h-6.44c-7.96,0-14.43-6.46-14.43-14.43v-1.95h0Z"/>
            <path class="cls-2" d="m97.22,74.07h6.44v1.95c0,7.96-6.46,14.43-14.43,14.43h-6.44v-1.95c0-7.96,6.46-14.43,14.43-14.43Z" transform="translate(186.45 164.52) rotate(-180)"/>
          </g>
          <g>
            <path class="cls-2" d="m55.24,50.43h6.44c7.96,0,14.43,6.46,14.43,14.43v1.95h-6.44c-7.96,0-14.43-6.46-14.43-14.43v-1.95h0Z"/>
            <path class="cls-2" d="m97.22,50.43h6.44v1.95c0,7.96-6.46,14.43-14.43,14.43h-6.44v-1.95c0-7.96,6.46-14.43,14.43-14.43Z" transform="translate(186.45 117.24) rotate(-180)"/>
          </g>
          <path class="cls-2" d="m70.64,27.52h5.1c6.76,0,12.26,5.49,12.26,12.26v5.1h-5.1c-6.76,0-12.26-5.49-12.26-12.26v-5.1h0Z" transform="translate(48.83 -45.48) rotate(45)"/>
        </g>
        <line class="cls-2" x1="79.45" y1="121.69" x2="79.45" y2="134.97"/>
      </g>
    </g>
  </g>
</svg>