<?xml version="1.0" encoding="UTF-8"?>
<svg id="Layer_2" data-name="Layer 2" xmlns="http://www.w3.org/2000/svg" viewBox="0 0 158.49 158.9">
  <defs>
    <style>
      .cls-1 {
        fill: none;
        stroke: #232323;
        stroke-linecap: round;
        stroke-linejoin: round;
        stroke-width: 6px;
      }
    </style>
  </defs>
  <g id="ikony">
    <g id="keto">
      <path class="cls-1" d="m23.59,146.29s10.35,10.1,34.1,9.6c19.69-.42,43.58-5.28,59.74-29.78,16.16-24.5,14.81-38.04,30.38-69.19,6.72-13.43,14.81-41.25-3.67-52.33-3.56-1.45-9.35-4.18-25.62,4.52-13.32,7.12-24.36,10.77-46.14,17.56-21.78,6.79-50.5,22.68-62.3,47.31s-7.52,41.34,2.11,52.46c10.76,12.44,37.47,22.48,67.45,4.22s41.67-44.41,46.84-56.68c5.68-13.45,9.93-28.43,12.63-35.54.9-2.38,1.7-4.8,2.32-7.27.67-2.67,2.12-6.34,1.36-11.87"/>
      <path class="cls-1" d="m104.22,56.76c-.49-4.48-4.11-9.11-8.41-10.42-9.64-2.94-31.43-6.35-53.4,10.3-25.45,19.29-14.97,43.93-11.01,50.35,5.73,9.28,29.5,21.47,52.45-1.95,17.94-18.31,21.63-36.75,20.37-48.28Z"/>
      <path class="cls-1" d="m46.83,104.16s15.95,8.41,32.44-9.84"/>
    </g>
  </g>
</svg>