<?xml version="1.0" encoding="UTF-8"?>
<svg id="Layer_2" data-name="Layer 2" xmlns="http://www.w3.org/2000/svg" viewBox="0 0 159.81 158.78">
  <defs>
    <style>
      .cls-1 {
        fill: none;
        stroke: #232323;
        stroke-linecap: round;
        stroke-linejoin: round;
        stroke-width: 6px;
      }
    </style>
  </defs>
  <g id="ikony">
    <g id="na_ostro" data-name="na ostro">
      <g>
        <path class="cls-1" d="m17.12,152.66s-5.4.56-8.11,1.52c-2.71.96-5.07,0-5.79-2.38-.54-1.78-.88-5.67,9.26-10.14,10.14-4.47,22-4.31,32.3-7.07s15.93-6.95,20.84-10.18,11.62-8.74,24.91-29.1,8.26-23.23,14.25-36.17,2.6-14.75,10.08-18.55"/>
        <path class="cls-1" d="m121.58,45.54s4.94-4.31,10.27-2.79c8.3,2.37,8.35,5.43,12.42,7.23s9.85,4.74,7.81,11.93-4.91,7.66-5.99,14.73-20.84,42.88-51.38,61.08-43.54,18.82-50.72,17.74c-7.19-1.08-14.71-1.65-14.71-1.65"/>
        <path class="cls-1" d="m145.58,48.54s1.61-7.28,7.06-13.52c7.23-8.28,3.3-20.93,1.27-25.1-3.25-6.68-12.69-9.61-15.97-3.8-2.57,4.55,1.77,8.85,4.06,13.31,2.92,5.7-.38,10.61-3.42,13.48"/>
        <path class="cls-1" d="m132.99,72.79s-4.56,23.33-41.08,52.49"/>
      </g>
    </g>
  </g>
</svg>