<svg width="30" height="30" viewBox="0 0 30 30" fill="none" xmlns="http://www.w3.org/2000/svg">
<path d="M20.8076 3.96994L20.3054 4.23195C19.6307 4.58399 18.8045 4.44822 18.278 3.89874C18.1491 3.76425 17.9967 3.65048 17.8316 3.56431C17.3154 3.29499 16.6924 3.29094 16.1762 3.56026L16.0755 3.61277C15.9703 3.66766 15.8748 3.73935 15.7927 3.82502C15.3041 4.33488 14.467 4.25276 14.0868 3.65765L13.8971 3.36069C13.8 3.20869 13.6738 3.07741 13.5257 2.9744L13.3874 2.87817C12.6286 2.35031 11.6214 2.35031 10.8626 2.87817L10.7243 2.9744C10.5762 3.07741 10.45 3.20869 10.3529 3.36069L10.1632 3.65765C9.78296 4.25276 8.94593 4.33488 8.45731 3.82502C8.37521 3.73935 8.27968 3.66766 8.17448 3.61277L8.03479 3.53989C7.53397 3.27859 6.94748 3.23566 6.41394 3.42124L6.20602 3.49356C5.82412 3.62639 5.47913 3.84786 5.19936 4.1398L5.05915 4.28611C4.71866 4.6414 4.46383 5.06976 4.31408 5.53852C4.10978 6.17808 4.10978 6.8654 4.31408 7.50495C4.46383 7.97372 4.71866 8.40208 5.05915 8.75737L5.19936 8.90368C5.47913 9.19562 5.82412 9.41708 6.20602 9.54992L6.34265 9.59744C6.92169 9.79885 7.56277 9.74986 8.1063 9.46628C8.89548 9.05453 9.86188 9.15426 10.5452 9.7247C11.4347 10.4672 12.7472 10.3942 13.5489 9.5577L14.2151 8.86254C14.2658 8.80961 14.3248 8.76531 14.3898 8.7314C14.8383 8.49742 15.375 8.82277 15.375 9.3286V11.0435L14.8896 16.1089C14.8528 16.4928 14.9214 16.8794 15.0881 17.2273L15.1286 17.3119C15.8815 18.8831 18.1185 18.8831 18.8714 17.3119C19.0632 16.9116 19.1216 16.4604 19.038 16.0245L18.1266 11.269C18.0978 11.119 18.0833 10.9666 18.0833 10.8138V10.0045C18.0833 9.60091 18.3077 9.23076 18.6656 9.04406C18.9795 8.88024 19.3538 8.88024 19.6678 9.04406L20.8076 9.63875C21.153 9.81894 21.5368 9.91304 21.9263 9.91304H21.9432C22.5917 9.91304 23.212 9.64832 23.6607 9.18015C23.9114 8.91858 24.099 8.60321 24.2092 8.2581L24.2872 8.01388C24.4809 7.40752 24.5049 6.7597 24.3566 6.14067L24.1833 5.41726C24.0905 5.03012 23.8965 4.67461 23.6211 4.38719C23.1977 3.94544 22.6124 3.69565 22.0005 3.69565H21.9263C21.5368 3.69565 21.153 3.78975 20.8076 3.96994Z" stroke="black"/>
<path d="M6.70898 9.91309V24C6.70898 26.2092 8.49985 28 10.709 28H17.8756C20.0848 28 21.8757 26.2092 21.8757 24V9.91309" stroke="black"/>
<path d="M6.70898 15H14.834" stroke="black"/>
<path d="M19.166 15H21.8743" stroke="black"/>
<path d="M22.416 13.3043H24.666C25.2183 13.3043 25.666 13.752 25.666 14.3043V20.7944C25.666 21.4323 25.4389 22.0493 25.0252 22.5348V22.5348C24.5153 23.1334 23.7686 23.4782 22.9822 23.4782H22.416" stroke="black"/>
</svg>
