<svg width="30" height="30" viewBox="0 0 30 30" fill="none" xmlns="http://www.w3.org/2000/svg">
<path d="M7 12.5V12C7 11.4477 7.44772 11 8 11H9C10.6569 11 12 9.65685 12 8V7.5C12 6.94772 12.4477 6.5 13 6.5H15.5H18C18.5523 6.5 19 6.94772 19 7.5V8C19 9.65685 20.3431 11 22 11H23C23.5523 11 24 11.4477 24 12V12.5C24 12.7761 23.7761 13 23.5 13C23.2239 13 23 13.2239 23 13.5V25.5C23 25.7761 23.2239 26 23.5 26C23.7761 26 24 26.2239 24 26.5V27C24 27.5523 23.5523 28 23 28H15.5H8C7.44772 28 7 27.5523 7 27V26.5C7 26.2239 7.22386 26 7.5 26C7.77614 26 8 25.7761 8 25.5V13.5C8 13.2239 7.77614 13 7.5 13C7.22386 13 7 12.7761 7 12.5Z" stroke="black" stroke-linecap="square"/>
<path d="M18 5H13C12.4477 5 12 4.55228 12 4C12 2.89543 12.8954 2 14 2H17C18.1046 2 19 2.89543 19 4C19 4.55228 18.5523 5 18 5Z" stroke="black" stroke-linecap="square"/>
<rect x="10.5" y="16.5" width="10" height="6" stroke="black"/>
<path d="M8 26H23" stroke="black" stroke-linecap="square"/>
<path d="M8 13H23" stroke="black" stroke-linecap="square"/>
</svg>
