<svg width="30" height="30" viewBox="0 0 30 30" fill="none" xmlns="http://www.w3.org/2000/svg">
<path d="M18.0869 6H11.878C11.438 6 11.1203 5.57887 11.2412 5.15582L11.393 4.62442C11.5115 4.20965 11.6796 3.81068 11.8936 3.43615C13.2671 1.03255 16.7507 1.06378 18.1242 3.46738C18.3252 3.81915 18.4848 4.19691 18.5961 4.58647L18.7491 5.12199C18.8749 5.562 18.5445 6 18.0869 6Z" stroke="black"/>
<path d="M12.5 6V11.2808C12.5 11.7455 12.3371 12.1955 12.0396 12.5525L11.1329 13.6405C10.3842 14.5389 9.8102 15.5694 9.44039 16.6788V16.6788C9.1487 17.5539 9 18.4702 9 19.3926V27.5784C9 27.8112 9.18876 28 9.42161 28H20.5784C20.8112 28 21 27.8112 21 27.5784V19.3926C21 18.4702 20.8513 17.5539 20.5596 16.6788V16.6788C20.1898 15.5694 19.6158 14.5389 18.8671 13.6405L17.9604 12.5525C17.6629 12.1955 17.5 11.7455 17.5 11.2808V6" stroke="black"/>
<path d="M12.5 11H17.5" stroke="black"/>
<path d="M11.5 13.5L13.8375 15.1697C14.5329 15.6664 15.4671 15.6664 16.1625 15.1697L18.5 13.5" stroke="black"/>
<path d="M12 24.5V21.5C12 21.2239 12.2239 21 12.5 21H17.5C17.7761 21 18 21.2239 18 21.5V24.5C18 24.7761 17.7761 25 17.5 25H12.5C12.2239 25 12 24.7761 12 24.5Z" stroke="black"/>
<circle cx="15" cy="18" r="1" fill="black"/>
</svg>
