<svg width="30" height="30" viewBox="0 0 30 30" fill="none" xmlns="http://www.w3.org/2000/svg">
<rect x="12.5" y="15.5" width="5" height="9" rx="0.5" stroke="black"/>
<path d="M13 19H18" stroke="black"/>
<path d="M13.3333 7.51938V2.5C13.3333 2.22386 13.5572 2 13.8333 2H16.1667C16.4428 2 16.6667 2.22386 16.6667 2.5V7.51938C16.6667 7.82316 16.8048 8.11047 17.042 8.30024L17.6527 8.78879C18.6369 9.57622 19.3482 10.6536 19.6856 11.8681L19.7811 12.212C19.9264 12.7349 20 13.2751 20 13.8179V27C20 27.5523 19.5523 28 19 28H11C10.4477 28 10 27.5523 10 27V13.8179C10 13.2751 10.0736 12.7349 10.2189 12.212L10.3144 11.8681C10.6518 10.6536 11.3631 9.57622 12.3473 8.78879L12.958 8.30024C13.1952 8.11047 13.3333 7.82316 13.3333 7.51938Z" stroke="black"/>
<path d="M13 5H17" stroke="black"/>
</svg>
