<svg width="30" height="30" viewBox="0 0 30 30" fill="none" xmlns="http://www.w3.org/2000/svg">
<path d="M9.43272 2H15.439H21.0673C21.5343 2 21.9392 2.3233 22.0425 2.77879L22.7733 6.00069C22.924 6.66482 23 7.34369 23 8.0247C23 10.5604 21.9477 12.9824 20.0942 14.7128L18.8627 15.8625C17.4023 17.2259 16.5732 19.1343 16.5732 21.1322C16.5732 22.9739 17.278 24.7457 18.543 26.0842L19.2415 26.8233C19.6619 27.2681 19.3466 28 18.7346 28H15.439H12.1435C11.5315 28 11.2161 27.2681 11.6365 26.8233L12.3745 26.0424C13.6142 24.7308 14.3049 22.9945 14.3049 21.1897C14.3049 19.1618 13.4335 17.2317 11.9124 15.8905L10.505 14.6495C8.5945 12.965 7.5 10.5408 7.5 7.99376C7.5 7.33332 7.57373 6.67494 7.71983 6.03086L8.45749 2.77879C8.56081 2.3233 8.96566 2 9.43272 2Z" stroke="black" stroke-linecap="round"/>
<path d="M7.5 8H23" stroke="black" stroke-linecap="round"/>
<path d="M13.5488 17.5V17.5C14.042 17.8261 14.6202 18 15.2114 18H15.6668C16.258 18 16.8362 17.8261 17.3293 17.5V17.5" stroke="black" stroke-linecap="square"/>
</svg>
