<svg width="30" height="30" viewBox="0 0 30 30" fill="none" xmlns="http://www.w3.org/2000/svg">
<path d="M12.4962 28H16H19.5038C20.054 28 20.5 27.554 20.5 27.0038C20.5 22.346 20.9601 17.6996 21.8736 13.1322L22 12.5C22.3325 9.50722 22.3701 6.48903 22.1123 3.48891L22.058 2.85737C22.0252 2.47571 21.7058 2.18262 21.3228 2.18262H16H10.6772C10.2942 2.18262 9.97481 2.47571 9.94201 2.85737L9.88772 3.48892C9.62987 6.48903 9.66747 9.50722 10 12.5L10.1264 13.1322C11.0399 17.6996 11.5 22.346 11.5 27.0038C11.5 27.554 11.946 28 12.4962 28Z" stroke="black" stroke-linecap="round"/>
<path d="M10 6L22 6" stroke="black" stroke-linecap="round"/>
<path d="M11.5 24V24C11.7986 24.8958 12.6369 25.5 13.5811 25.5H18.4189C19.3631 25.5 20.2014 24.8958 20.5 24V24" stroke="black" stroke-linecap="round"/>
</svg>
