<svg width="30" height="30" viewBox="0 0 30 30" fill="none" xmlns="http://www.w3.org/2000/svg">
<path d="M14 4.5V7.61928C14 8.80801 13.4596 9.93228 12.5314 10.6749V10.6749C11.8623 11.2101 11.3875 11.9502 11.1796 12.7814L11.1623 12.8507C11.0548 13.2807 11.0173 13.7253 11.0513 14.1674L11.3845 18.4984C11.4611 19.4943 11.3937 20.496 11.1844 21.4726L10.1682 26.2149C10.0633 26.7044 10.2137 27.2137 10.5677 27.5677V27.5677C10.8445 27.8445 11.2199 28 11.6113 28H15.5H19.3887C19.7801 28 20.1555 27.8445 20.4323 27.5677V27.5677C20.7863 27.2137 20.9367 26.7044 20.8318 26.2149L19.8156 21.4726C19.6063 20.496 19.5389 19.4943 19.6155 18.4984L19.9487 14.1674C19.9827 13.7253 19.9452 13.2807 19.8377 12.8507L19.8204 12.7814C19.6125 11.9502 19.1377 11.2101 18.4686 10.6749V10.6749C17.5404 9.93228 17 8.80801 17 7.61928V4.5H15.5H14ZM15.1711 2H15.8289C17.028 2 18 2.97201 18 4.17105V4.17105C18 4.35273 17.8527 4.5 17.6711 4.5H13.3289C13.1473 4.5 13 4.35273 13 4.17105V4.17105C13 2.97201 13.972 2 15.1711 2Z" stroke="black" stroke-linecap="round"/>
<ellipse cx="15.5" cy="20" rx="2" ry="4" stroke="black"/>
</svg>
