<svg width="30" height="30" viewBox="0 0 30 30" fill="none" xmlns="http://www.w3.org/2000/svg">
<path d="M8.878 5.75889L9.2357 5.16272C9.29627 5.06177 9.40537 5 9.5231 5H20.8102C20.928 5 21.0371 5.06177 21.0976 5.16272L21.4553 5.75889C22.8036 8.00598 23.6679 10.5098 23.9929 13.1101L24.0603 13.6488C24.2414 15.0975 24.2114 16.5648 23.9714 18.0049C23.6599 19.8738 22.9995 21.6675 22.0247 23.2922L21.1081 24.8199C21.041 24.9316 20.9203 25 20.7899 25H9.54339C9.41307 25 9.29231 24.9316 9.22526 24.8199L8.30864 23.2922C7.33381 21.6675 6.67341 19.8738 6.36192 18.0049C6.12191 16.5648 6.09198 15.0975 6.27306 13.6488L6.34041 13.1101C6.66544 10.5098 7.52974 8.00598 8.878 5.75889Z" stroke="black" stroke-linecap="round"/>
<path d="M12.2493 5L11.5818 7.225C11.1941 8.51763 10.9035 9.83747 10.7127 11.1735V11.1735C10.3501 13.7116 10.3501 16.2884 10.7127 18.8265V18.8265C10.9035 20.1625 11.1941 21.4824 11.5818 22.775L12.2493 25" stroke="black" stroke-linecap="round"/>
<path d="M18.5007 25L19.1682 22.775C19.5559 21.4824 19.8465 20.1625 20.0373 18.8265V18.8265C20.3999 16.2884 20.3999 13.7116 20.0373 11.1735V11.1735C19.8465 9.83747 19.5559 8.51763 19.1682 7.225L18.5007 5" stroke="black" stroke-linecap="round"/>
<path d="M15.166 5V25" stroke="black" stroke-linecap="round"/>
<path d="M7.25 9.16669H23.0833" stroke="black" stroke-linecap="round"/>
<path d="M7.25 20.8333H23.0833" stroke="black" stroke-linecap="round"/>
</svg>
