<svg width="30" height="30" viewBox="0 0 30 30" fill="none" xmlns="http://www.w3.org/2000/svg">
<path d="M13 5H17" stroke="black"/>
<path d="M9 18H21" stroke="black"/>
<path d="M9 25H21" stroke="black"/>
<path d="M13 7.46482V2.5C13 2.22386 13.2239 2 13.5 2H16.5C16.7761 2 17 2.22386 17 2.5V7.46482C17 7.79917 17.1671 8.1114 17.4453 8.29687L18.2871 8.85807C19.3973 9.59818 20.2291 10.6872 20.651 11.953L20.6921 12.0763C20.896 12.6881 21 13.3288 21 13.9737V27C21 27.5523 20.5523 28 20 28H10C9.44772 28 9 27.5523 9 27V13.9737C9 13.3288 9.10397 12.6881 9.3079 12.0763L9.349 11.953C9.77093 10.6872 10.6027 9.59818 11.7129 8.85807L12.5547 8.29687C12.8329 8.1114 13 7.79917 13 7.46482Z" stroke="black"/>
</svg>
