<svg width="30" height="30" viewBox="0 0 30 30" fill="none" xmlns="http://www.w3.org/2000/svg">
<path d="M14 7L11.8748 6.14993C11.6484 6.05938 11.5 5.84012 11.5 5.59629V5.59629C11.5 5.26697 11.767 5 12.0963 5H13.4781C13.4912 5 13.5028 4.99162 13.5069 4.97919L14.1838 2.94868C14.3726 2.38214 14.9028 2 15.5 2V2V2C16.0972 2 16.6274 2.38214 16.8162 2.94868L17.4931 4.97919C17.4972 4.99162 17.5088 5 17.5219 5H18.9037C19.233 5 19.5 5.26697 19.5 5.59629V5.59629C19.5 5.84012 19.3516 6.05938 19.1252 6.14993L17 7M14 7L13.6828 8.90301C13.5655 9.60713 13.1814 10.239 12.6103 10.6673V10.6673C11.8896 11.2078 11.013 11.5 10.1121 11.5H9.80049C9.35839 11.5 9 11.8584 9 12.3005V27.2576C9 27.3915 9.10854 27.5 9.24242 27.5H15.5H21.7576C21.8915 27.5 22 27.3915 22 27.2576V12.3005C22 11.8584 21.6416 11.5 21.1995 11.5H20.8879C19.987 11.5 19.1104 11.2078 18.3897 10.6673V10.6673C17.8186 10.239 17.4345 9.60713 17.3172 8.90301L17 7M14 7V7C14.9737 7.32456 16.0263 7.32456 17 7V7" stroke="black" stroke-linecap="square"/>
<path d="M16.0012 13H14.9988C14.171 13 13.5 13.671 13.5 14.4988C13.5 14.4995 13.4995 14.5 13.4988 14.5H12.75C12.3358 14.5 12 14.8358 12 15.25V19C12 19.5523 12.4477 20 13 20H18C18.5523 20 19 19.5523 19 19V15.25C19 14.8358 18.6642 14.5 18.25 14.5H17.5012C17.5005 14.5 17.5 14.4995 17.5 14.4988C17.5 13.671 16.829 13 16.0012 13Z" stroke="black" stroke-linecap="square"/>
<path d="M9.5 24V24C10.4001 24.6501 11.4822 25 12.5926 25H18.4074C19.5178 25 20.5999 24.6501 21.5 24V24" stroke="black" stroke-linecap="square"/>
</svg>
