<svg width="30" height="30" viewBox="0 0 30 30" fill="none" xmlns="http://www.w3.org/2000/svg">
<path d="M13 2V7.46482C13 7.79917 12.8329 8.1114 12.5547 8.29687L11.7129 8.85807C10.6027 9.59818 9.77093 10.6872 9.349 11.953L9.3079 12.0763C9.10397 12.6881 9 13.3288 9 13.9737V27C9 27.5523 9.44772 28 10 28H20C20.5523 28 21 27.5523 21 27V13.9737C21 13.3288 20.896 12.6881 20.6921 12.0763L20.651 11.953C20.2291 10.6872 19.3973 9.59818 18.2871 8.85807L17.4453 8.29687C17.1671 8.1114 17 7.79917 17 7.46482V2" stroke="black"/>
<path d="M9 14H12.1972C13.3727 14 14.5219 14.3479 15.5 15V15C16.4781 15.6521 17.6273 16 18.8028 16H21" stroke="black"/>
<path d="M12 2H18" stroke="black" stroke-linecap="round"/>
</svg>
