<svg width="30" height="30" viewBox="0 0 30 30" fill="none" xmlns="http://www.w3.org/2000/svg">
<path d="M7.04713 24.1065L5.11856 6.10653C5.05523 5.51547 5.51842 5 6.11287 5H23.8871C24.4816 5 24.9448 5.51547 24.8814 6.10653L22.9529 24.1065C22.8984 24.6147 22.4696 25 21.9586 25H8.04144C7.53039 25 7.10157 24.6147 7.04713 24.1065Z" stroke="black"/>
<path d="M6 16H24" stroke="black"/>
<path d="M7 16L7.20382 17.5287C7.46878 19.5159 9.16392 21 11.1687 21H18.8313C20.8361 21 22.5312 19.5159 22.7962 17.5287L23 16" stroke="black"/>
<path d="M9 16V14C9 13.4477 9.44772 13 10 13H13C13.5523 13 14 13.4477 14 14V16" stroke="black" stroke-linecap="round"/>
<path d="M9 16V17C9 17.5523 9.44772 18 10 18H13C13.5523 18 14 17.5523 14 17V16" stroke="black" stroke-linecap="round"/>
<path d="M16 15.5981L17 13.866C17.2761 13.3877 17.8877 13.2239 18.366 13.5L20.9641 15C21.4424 15.2761 21.6063 15.8877 21.3301 16.366L20.3301 18.0981" stroke="black" stroke-linecap="round"/>
<path d="M16 15.5981L15.5 16.4641C15.2239 16.9424 15.3877 17.554 15.866 17.8301L18.4641 19.3301C18.9424 19.6063 19.554 19.4424 19.8301 18.9641L20.3301 18.0981" stroke="black" stroke-linecap="round"/>
</svg>
