<svg width="30" height="30" viewBox="0 0 30 30" fill="none" xmlns="http://www.w3.org/2000/svg">
<path d="M14.0938 7.92678V5H15.5H16.9062V7.92678C16.9062 8.52326 17.0425 9.11187 17.3046 9.64769C17.6556 10.3654 18.2177 10.9585 18.9155 11.3476L19.4353 11.6374C21.5747 12.8303 22.7374 15.2356 22.3432 17.6532L22.1746 18.6876C22.1 19.1448 21.9822 19.5939 21.8226 20.0288L21.6486 20.5033C20.9954 22.2837 20.7521 24.1885 20.9368 26.0759L21.0176 26.9026C21.0752 27.4906 20.6132 28 20.0224 28H15.5H10.9776C10.3868 28 9.92483 27.4906 9.98235 26.9026L10.0632 26.0759C10.2479 24.1885 10.0046 22.2837 9.35143 20.5033L9.17736 20.0288C9.01782 19.5939 8.89997 19.1448 8.82543 18.6876L8.65677 17.6532C8.26261 15.2356 9.42533 12.8303 11.5647 11.6374L12.0845 11.3476C12.7823 10.9585 13.3444 10.3654 13.6954 9.64769C13.9575 9.11187 14.0938 8.52326 14.0938 7.92678Z" stroke="black" stroke-linecap="square"/>
<path d="M19.5 17.5C19.5 19.0472 17.8334 20.5 15.5 20.5C13.1666 20.5 11.5 19.0472 11.5 17.5C11.5 15.9528 13.1666 14.5 15.5 14.5C17.8334 14.5 19.5 15.9528 19.5 17.5Z" stroke="black"/>
<path d="M13.1712 3.02721L13.0453 2.27157C13.0216 2.12941 13.1312 2 13.2753 2H17.7247C17.8688 2 17.9784 2.12941 17.9547 2.27157L17.8288 3.02721C17.6391 4.16562 16.6541 5 15.5 5C14.3459 5 13.3609 4.16562 13.1712 3.02721Z" stroke="black" stroke-linecap="square"/>
<path d="M10.5 25.5L10.7021 25.5674C11.5656 25.8552 12.4533 26.0648 13.3543 26.1935V26.1935C14.7776 26.3968 16.2224 26.3968 17.6457 26.1935V26.1935C18.5467 26.0648 19.4344 25.8552 20.2979 25.5674L20.5 25.5" stroke="black" stroke-linecap="square"/>
</svg>
