<?xml version="1.0" encoding="UTF-8"?>
<svg xmlns="http://www.w3.org/2000/svg" version="1.1" width="500" height="500" viewBox="0 0 500 500"><rect x="0" y="0" width="500" height="500" fill="#ffffff"/><g transform="scale(20)"><g transform="translate(0,0)"><path fill-rule="evenodd" d="M8 0L8 1L9 1L9 2L8 2L8 5L9 5L9 4L11 4L11 5L10 5L10 10L9 10L9 8L8 8L8 10L9 10L9 12L8 12L8 13L7 13L7 12L6 12L6 11L7 11L7 10L6 10L6 9L7 9L7 8L6 8L6 9L5 9L5 10L4 10L4 8L0 8L0 9L3 9L3 10L4 10L4 12L3 12L3 11L2 11L2 10L1 10L1 11L0 11L0 13L1 13L1 11L2 11L2 12L3 12L3 14L1 14L1 15L0 15L0 16L1 16L1 15L3 15L3 14L4 14L4 15L5 15L5 13L7 13L7 14L6 14L6 15L7 15L7 16L5 16L5 17L7 17L7 16L8 16L8 15L9 15L9 14L10 14L10 16L9 16L9 17L8 17L8 18L9 18L9 20L10 20L10 22L9 22L9 21L8 21L8 25L9 25L9 24L10 24L10 25L12 25L12 24L15 24L15 25L16 25L16 24L15 24L15 23L16 23L16 22L17 22L17 25L21 25L21 24L18 24L18 23L22 23L22 25L25 25L25 24L23 24L23 23L24 23L24 22L25 22L25 21L24 21L24 20L23 20L23 23L22 23L22 22L21 22L21 20L22 20L22 18L23 18L23 16L24 16L24 19L25 19L25 16L24 16L24 15L23 15L23 13L24 13L24 14L25 14L25 13L24 13L24 12L25 12L25 11L21 11L21 10L20 10L20 9L23 9L23 10L24 10L24 9L25 9L25 8L24 8L24 9L23 9L23 8L20 8L20 9L19 9L19 11L18 11L18 10L17 10L17 9L18 9L18 8L17 8L17 6L16 6L16 8L15 8L15 6L14 6L14 8L15 8L15 9L13 9L13 6L12 6L12 5L13 5L13 4L15 4L15 5L17 5L17 4L16 4L16 3L17 3L17 2L13 2L13 0L12 0L12 1L11 1L11 0L10 0L10 1L9 1L9 0ZM16 0L16 1L17 1L17 0ZM11 2L11 4L12 4L12 3L13 3L13 2ZM8 6L8 7L9 7L9 6ZM11 6L11 8L12 8L12 6ZM11 9L11 10L12 10L12 9ZM15 9L15 10L13 10L13 11L11 11L11 13L10 13L10 14L11 14L11 13L12 13L12 12L13 12L13 11L15 11L15 12L14 12L14 13L13 13L13 14L12 14L12 16L11 16L11 17L10 17L10 18L11 18L11 19L10 19L10 20L11 20L11 23L10 23L10 24L11 24L11 23L14 23L14 22L15 22L15 21L16 21L16 20L15 20L15 21L13 21L13 18L15 18L15 19L16 19L16 17L14 17L14 15L15 15L15 16L16 16L16 14L15 14L15 12L18 12L18 11L16 11L16 9ZM20 11L20 12L19 12L19 13L20 13L20 12L21 12L21 14L20 14L20 16L23 16L23 15L21 15L21 14L22 14L22 12L21 12L21 11ZM13 14L13 15L14 15L14 14ZM17 15L17 16L18 16L18 15ZM12 16L12 17L13 17L13 16ZM17 17L17 20L20 20L20 17ZM21 17L21 18L22 18L22 17ZM18 18L18 19L19 19L19 18ZM11 19L11 20L12 20L12 19ZM0 0L0 7L7 7L7 0ZM1 1L1 6L6 6L6 1ZM2 2L2 5L5 5L5 2ZM18 0L18 7L25 7L25 0ZM19 1L19 6L24 6L24 1ZM20 2L20 5L23 5L23 2ZM0 18L0 25L7 25L7 18ZM1 19L1 24L6 24L6 19ZM2 20L2 23L5 23L5 20Z" fill="#000000"/></g></g></svg>
